<svg xmlns="http://www.w3.org/2000/svg" xmlns:xlink="http://www.w3.org/1999/xlink" version="1.1" x="0px" y="0px" viewBox="0 0 29 37.5" xml:space="preserve"><g transform="translate(-90 -260)"><g xmlns="http://www.w3.org/2000/svg" xmlns:xlink="http://www.w3.org/1999/xlink"><path d="M118,281v-3h-1v1h-1v-2h-2v-1h-1v-3h-1v3h-1v-6h1l-3-6v-1l3-1.5l-3-1.5h-1v4l-3,6h1v6h-3v-3h1l-3-6v-1l3-1.5l-3-1.5h-1v4    l-3,6h1v3h-2v-3h-1v3h-1v2h-1v1h-1v-1h-1v3h-1v8h11h7h11v-8H118z M111,277h2v1h2v1h-4V277z M107,270h3v9h-1v-2h-2V270z M99,273h3    v4h-2v2h-1V273z M95,288h-4v-6h1v-2h3V288z M95,277h3v2h-3V277z M101,288v-2.5c0-1.763,1.306-3.205,3-3.449V288H101z M108,288h-3    v-5.949c1.694,0.244,3,1.687,3,3.449V288z M113,288h-4v-2.5c0-2.481-2.019-4.5-4.5-4.5s-4.5,2.019-4.5,4.5v2.5h-4v-8h5v-2h7v2h5    V288z M118,288h-4v-8h3v2h1V288z"/><rect x="92" y="284" width="2" height="1"/><rect x="115" y="284" width="2" height="1"/><rect x="97" y="282" width="2" height="1"/><rect x="110" y="282" width="2" height="1"/><rect x="103" y="279" width="3" height="1"/></g></g><text x="0" y="45" fill="#000000" font-size="5px" font-weight="bold" font-family="'Helvetica Neue', Helvetica, Arial-Unicode, Arial, Sans-serif">Created by Hea Poh Lin</text><text x="0" y="50" fill="#000000" font-size="5px" font-weight="bold" font-family="'Helvetica Neue', Helvetica, Arial-Unicode, Arial, Sans-serif">from the Noun Project</text></svg>