<?xml version="1.0" encoding="UTF-8" standalone="no"?> <svg id="Layer_1" enable-background="new 0 0 512.008 512.008" height="512" viewBox="0 0 512.008 512.008" width="512" xmlns="http://www.w3.org/2000/svg"><g><g><path d="m235.924 429.879c-33.729.003-90.087-34.676-132.28-70.184-26.695-22.467-49.909-46.896-67.133-70.648-20.614-28.428-32.604-55.541-35.634-80.583-3.811-31.481 4.867-62.563 24.434-87.518s47.68-40.796 79.162-44.606c22.515-2.727 45.178 1 65.54 10.772 19.802 9.503 36.563 24.258 48.471 42.67 2.101 3.249 2.865 7.184 2.133 10.983-1.82 9.449-7.766 32.475-11.099 44.875l47.482 63.215c3.532 4.703 3.99 11.036 1.171 16.197l-39.435 72.223 33.232 71.162c2.077 4.447 1.846 9.629-.617 13.875-2.463 4.245-6.848 7.017-11.74 7.421-1.195.098-2.427.146-3.687.146z" fill="#ff415b"/></g><g><g><path d="m290.357 437.219c-1.237 0-2.445-.05-3.627-.151-6.253-.537-11.511-4.91-13.179-10.96l-22.883-83.032c-1.07-3.883-.533-8.034 1.489-11.518l50.677-87.273-45.47-55.963c-4.588-5.647-4.462-13.772.298-19.274l41.946-48.479c23.722-30.42 60.813-47.481 99.316-45.647 31.675 1.507 60.868 15.259 82.201 38.722 21.332 23.463 32.25 53.83 30.743 85.505-3.7 77.782-74.602 147.87-104.913 174.393-34.141 29.876-84.339 63.675-116.598 63.677z" fill="#e50058"/></g></g></g></svg>