<?xml version="1.0" encoding="UTF-8"?>
<svg xmlns="http://www.w3.org/2000/svg" xmlns:xlink="http://www.w3.org/1999/xlink" width="34px" height="58px" viewBox="0 0 34 58" version="1.1">
    <!-- Generator: Sketch 52.6 (67491) - http://www.bohemiancoding.com/sketch -->
    <title>054 - Discount Banner</title>
    <desc>Created with Sketch.</desc>
    <g id="Page-1" stroke="none" stroke-width="1" fill="none" fill-rule="evenodd">
        <g id="054---Discount-Banner">
            <path d="M30.546,57.369 L18.454,44.569 C18.0761818,44.1689726 17.550244,43.9422749 17,43.9422749 C16.449756,43.9422749 15.9238182,44.1689726 15.546,44.569 L3.454,57.369 C2.89195586,57.9640867 2.02402153,58.1566197 1.26306481,57.8550129 C0.502108078,57.5534061 0.00174763865,56.8185467 0,56 L0,2 C0,0.8954305 0.8954305,2.22044605e-16 2,0 L32,0 C33.1045695,0 34,0.8954305 34,2 L34,56 C33.9982524,56.8185467 33.4978919,57.5534061 32.7369352,57.8550129 C31.9759785,58.1566197 31.1080441,57.9640867 30.546,57.369 Z" id="Path" fill="#FF5364"/>
            <path d="M6,5 L4,5 C3.44771525,5 3,4.55228475 3,4 C3,3.44771525 3.44771525,3 4,3 L6,3 C6.55228475,3 7,3.44771525 7,4 C7,4.55228475 6.55228475,5 6,5 Z" id="Path" fill="#FFFFFF"/>
            <path d="M30,5 L10,5 C9.44771525,5 9,4.55228475 9,4 C9,3.44771525 9.44771525,3 10,3 L30,3 C30.5522847,3 31,3.44771525 31,4 C31,4.55228475 30.5522847,5 30,5 Z" id="Path" fill="#FFFFFF"/>
            <circle id="Oval" fill="#955BA5" cx="17" cy="23" r="13"/>
            <circle id="Oval" fill="#FFFFFF" cx="13" cy="19" r="2"/>
            <circle id="Oval" fill="#FFFFFF" cx="21" cy="27" r="2"/>
            <path d="M13,29 C12.6154566,29.0001443 12.2648953,28.7797734 12.0983181,28.4331819 C11.9317409,28.0865903 11.9786603,27.6751841 12.219,27.375 L20.219,17.375 C20.442291,17.0959756 20.7974781,16.9572707 21.1507659,17.0111342 C21.5040536,17.0649976 21.8017691,17.3032463 21.9317659,17.6361342 C22.0617626,17.969022 22.004291,18.3459756 21.781,18.625 L13.781,28.625 C13.5911385,28.8621369 13.3037783,29.000114 13,29 Z" id="Path" fill="#FFFFFF"/>
        </g>
    </g>
</svg>
