<svg xmlns:dc="http://purl.org/dc/elements/1.1/" xmlns:cc="http://creativecommons.org/ns#" xmlns:rdf="http://www.w3.org/1999/02/22-rdf-syntax-ns#" xmlns:svg="http://www.w3.org/2000/svg" xmlns="http://www.w3.org/2000/svg" xmlns:sodipodi="http://sodipodi.sourceforge.net/DTD/sodipodi-0.dtd" xmlns:inkscape="http://www.inkscape.org/namespaces/inkscape" viewBox="0 0 16.933333 21.166666250000002" version="1.1" x="0px" y="0px"><g><path style="color:#000000;font-style:normal;font-variant:normal;font-weight:normal;font-stretch:normal;font-size:medium;line-height:normal;font-family:sans-serif;font-variant-ligatures:normal;font-variant-position:normal;font-variant-caps:normal;font-variant-numeric:normal;font-variant-alternates:normal;font-feature-settings:normal;text-indent:0;text-align:start;text-decoration:none;text-decoration-line:none;text-decoration-style:solid;text-decoration-color:#000000;letter-spacing:normal;word-spacing:normal;text-transform:none;writing-mode:lr-tb;direction:ltr;text-orientation:mixed;dominant-baseline:auto;baseline-shift:baseline;text-anchor:start;white-space:normal;shape-padding:0;clip-rule:nonzero;display:inline;overflow:visible;visibility:visible;opacity:1;isolation:auto;mix-blend-mode:normal;color-interpolation:sRGB;color-interpolation-filters:linearRGB;solid-color:#000000;solid-opacity:1;vector-effect:none;fill:#000000;fill-opacity:1;fill-rule:nonzero;stroke:none;stroke-width:1.99999988;stroke-linecap:round;stroke-linejoin:round;stroke-miterlimit:4;stroke-dasharray:none;stroke-dashoffset:0;stroke-opacity:1;color-rendering:auto;image-rendering:auto;shape-rendering:auto;text-rendering:auto;enable-background:accumulate" d="M 32 16.011719 C 29.802705 16.011719 28 17.814424 28 20.011719 C 28 20.031446 28.005568 20.050605 28.005859 20.070312 C 17.267133 21.516372 8.9980469 30.319527 8.9980469 41.013672 L 8.9980469 42.009766 L 55.001953 42.009766 L 55.001953 41.013672 C 55.001953 30.32002 46.734101 21.516983 35.996094 20.070312 C 35.99638 20.050667 36.001953 20.031367 36.001953 20.011719 C 36.001953 17.814424 34.197295 16.011719 32 16.011719 z M 32 18.011719 C 33.072775 18.011719 33.922825 18.830401 33.988281 19.884766 C 33.620901 19.867452 33.250773 19.857422 32.878906 19.857422 L 31.121094 19.857422 C 30.749244 19.857422 30.381035 19.867454 30.013672 19.884766 C 30.079128 18.830401 30.927225 18.011719 32 18.011719 z M 31.121094 21.857422 L 32.878906 21.857422 C 43.692514 21.857422 52.225464 29.92598 52.794922 40.017578 L 11.205078 40.017578 C 11.774535 29.92598 20.307492 21.857422 31.121094 21.857422 z M 41.615234 25.416016 A 1.0001 1.0001 0 0 0 41.294922 27.341797 C 41.294922 27.341797 42.64657 27.924157 44.380859 29.601562 C 46.115145 31.278968 48.161293 34.006007 49.339844 38.267578 A 1.0001 1.0001 0 1 0 51.267578 37.736328 C 49.988684 33.111906 47.72822 30.050888 45.775391 28.162109 C 43.822562 26.273331 42.099609 25.511719 42.099609 25.511719 A 1.0001 1.0001 0 0 0 41.714844 25.416016 A 1.0001 1.0001 0 0 0 41.615234 25.416016 z M 4.9980469 43.001953 C 4.2555224 43.003155 3.7718259 43.782942 4.1035156 44.447266 C 4.6631435 45.566524 5.4805105 46.659636 6.4746094 47.511719 C 7.4687083 48.363806 8.6686208 49.001953 10.001953 49.001953 L 53.001953 49.001953 C 54.335284 49.001953 55.690902 48.411795 56.929688 47.585938 C 58.168473 46.760084 59.277228 45.685783 59.896484 44.447266 C 60.228176 43.782942 59.746436 43.003113 59.003906 43.001953 L 4.9980469 43.001953 z M 6.8203125 45.001953 L 56.972656 45.001953 C 56.638924 45.315616 56.214528 45.65451 55.822266 45.916016 C 54.811049 46.590159 53.66862 47.001953 53.001953 47.001953 L 10.001953 47.001953 C 9.3352887 47.001953 8.5293385 46.638136 7.7734375 45.990234 C 7.4659918 45.726726 7.092629 45.332446 6.8203125 45.001953 z " transform="scale(0.26458333)"/></g><text x="0" y="31.933333" fill="#000000" font-size="5px" font-weight="bold" font-family="'Helvetica Neue', Helvetica, Arial-Unicode, Arial, Sans-serif">Created by Aficons</text><text x="0" y="36.933333000000005" fill="#000000" font-size="5px" font-weight="bold" font-family="'Helvetica Neue', Helvetica, Arial-Unicode, Arial, Sans-serif">from the Noun Project</text></svg>