<svg xmlns="http://www.w3.org/2000/svg" xmlns:xlink="http://www.w3.org/1999/xlink" version="1.1" x="0px" y="0px" viewBox="0 0 90 112.5" enable-background="new 0 0 90 90" xml:space="preserve"><g><circle cx="19.016" cy="14.502" r="2.808"/><circle cx="11.828" cy="24.901" r="2.808"/><circle cx="8.63" cy="37.132" r="2.808"/><circle cx="9.808" cy="49.719" r="2.808"/><circle cx="15.22" cy="61.144" r="2.808"/><circle cx="24.213" cy="70.029" r="2.807"/><circle cx="48.303" cy="76.33" r="2.808"/><circle cx="60.495" cy="72.982" r="2.808"/><circle cx="70.806" cy="65.669" r="2.808"/><circle cx="77.995" cy="55.27" r="2.808"/><path d="M83.344,41.235c-0.996-1.189-2.769-1.344-3.956-0.346c-1.188,0.997-1.343,2.767-0.348,3.956   c1.001,1.187,2.771,1.343,3.958,0.346S84.34,42.424,83.344,41.235z"/><path d="M78.609,32.884c1.346,0.774,3.063,0.316,3.838-1.029c0.775-1.342,0.314-3.057-1.029-3.833   c-1.341-0.778-3.06-0.316-3.835,1.027C76.808,30.391,77.268,32.108,78.609,32.884z"/><circle cx="74.602" cy="19.027" r="2.808"/><circle cx="65.609" cy="10.142" r="2.808"/><path d="M55.523,7.301c1.344-0.777,1.806-2.493,1.028-3.836c-0.774-1.344-2.491-1.803-3.836-1.025   c-1.343,0.772-1.803,2.492-1.027,3.833C52.463,7.615,54.181,8.075,55.523,7.301z"/><circle cx="41.52" cy="3.844" r="2.807"/><path d="M28.369,9.828c1.458,0.53,3.067-0.222,3.598-1.677c0.529-1.461-0.22-3.072-1.679-3.603   c-1.457-0.53-3.067,0.222-3.598,1.681C26.158,7.686,26.911,9.297,28.369,9.828z"/><path d="M36.434,44.352l-20.04,10.152c0.145,0.286,0.294,0.569,0.447,0.85l19.723-10.753   C36.519,44.517,36.476,44.435,36.434,44.352z"/><path d="M35.6,38.254l-22.05-4.296c-0.061,0.316-0.118,0.633-0.17,0.953l22.171,3.617C35.566,38.436,35.582,38.345,35.6,38.254z"/><path d="M38.299,46.888L22.598,62.953c0.234,0.229,0.473,0.454,0.714,0.675l15.177-16.56   C38.425,47.009,38.361,46.949,38.299,46.888z"/><path d="M35.512,41.391l-22.255,3.057c0.044,0.314,0.091,0.629,0.144,0.939l22.156-3.705C35.541,41.586,35.525,41.49,35.512,41.391   z"/><path d="M44.365,30.614L43.148,8.183c-0.32,0.019-0.639,0.039-0.955,0.067l1.885,22.384C44.174,30.627,44.27,30.619,44.365,30.614z   "/><path d="M31.233,68.965c0.288,0.138,0.581,0.27,0.874,0.398l9.008-20.578c-0.088-0.039-0.174-0.078-0.26-0.119L31.233,68.965z"/><path d="M31.994,10.857l9.08,20.548c0.091-0.041,0.182-0.08,0.273-0.117l-8.484-20.799C32.571,10.607,32.281,10.73,31.994,10.857z"/><path d="M53.79,43.441l21.025,7.91c0.113-0.298,0.221-0.6,0.325-0.902l-21.252-7.281C53.856,43.261,53.824,43.352,53.79,43.441z"/><path d="M50.304,32.279l12.793-18.466c-0.26-0.181-0.523-0.357-0.79-0.53L50.06,32.113C50.142,32.167,50.224,32.223,50.304,32.279z   "/><path d="M52.551,34.46l18.081-13.33c-0.189-0.259-0.384-0.514-0.582-0.767L52.38,34.235C52.438,34.309,52.495,34.384,52.551,34.46z   "/><path d="M53.561,9.324c-0.302-0.086-0.606-0.166-0.911-0.242l-5.434,21.796c0.098,0.024,0.194,0.05,0.291,0.078L53.561,9.324z"/><path d="M53.963,37.229L75.4,30.512c-0.099-0.313-0.201-0.624-0.31-0.933l-21.21,7.4C53.91,37.063,53.937,37.145,53.963,37.229z"/><path d="M38.691,32.923L23.916,16.002c-0.235,0.206-0.468,0.415-0.698,0.627l15.245,16.499   C38.539,33.059,38.615,32.99,38.691,32.923z"/><path d="M54.397,40.085c0,0.099-0.001,0.195-0.004,0.292l22.454,0.661c0.009-0.316,0.014-0.633,0.014-0.953v-0.086H54.397V40.085z"/><path d="M52.241,46.107L69.51,60.475c0.213-0.255,0.422-0.516,0.625-0.778L52.396,45.914   C52.346,45.979,52.295,46.043,52.241,46.107z"/><path d="M49.843,48.192l11.77,19.135c0.269-0.165,0.533-0.333,0.795-0.506L50.099,48.03C50.016,48.086,49.93,48.14,49.843,48.192z"/><path d="M36.691,35.342l-19.449-11.24c-0.16,0.275-0.315,0.554-0.466,0.835l19.772,10.66   C36.596,35.511,36.643,35.426,36.691,35.342z"/><path d="M53.681,72.42c14.235-3.864,24.738-16.893,24.738-32.335c0-18.475-15.031-33.508-33.509-33.508   c-18.476,0-33.507,15.033-33.507,33.508c0,15.47,10.54,28.519,24.814,32.357l-0.027,0.108c-0.628-0.112-1.295-0.022-1.891,0.319   c-1.344,0.778-1.805,2.495-1.027,3.837c0.355,0.618,0.914,1.037,1.541,1.247l-1.494,5.863h-4.614v4.555h32.636v-4.555h-4.756   L53.681,72.42z M12.651,40.085c0-17.789,14.472-32.259,32.259-32.259c17.789,0,32.261,14.471,32.261,32.259   c0,14.861-10.103,27.398-23.798,31.126l-7.492-29.399c0.604-0.34,1.018-0.982,1.018-1.725c0-1.098-0.889-1.989-1.988-1.989   c-1.097,0-1.986,0.891-1.986,1.989c0,0.772,0.445,1.435,1.09,1.764l-7.488,29.383C22.791,67.532,12.651,54.973,12.651,40.085z    M42.334,71.933l1.776-22.394c-0.041-0.004-0.081-0.008-0.122-0.011l0.963-3.781l6.603,25.906c-2.146,0.45-4.366,0.692-6.644,0.692   c-2.248,0-4.443-0.234-6.565-0.674l5.41-21.227l-2.409,21.393C41.674,71.875,42.004,71.906,42.334,71.933z M36.761,77.891   c0.117-0.048,0.234-0.091,0.346-0.156c1.343-0.774,1.804-2.491,1.028-3.835c-0.077-0.134-0.17-0.251-0.264-0.366l0.166-0.651   c2.22,0.465,4.518,0.713,6.873,0.713c2.384,0,4.708-0.255,6.952-0.731l2.791,10.954H35.25L36.761,77.891z"/></g><text x="0" y="105" fill="#000000" font-size="5px" font-weight="bold" font-family="'Helvetica Neue', Helvetica, Arial-Unicode, Arial, Sans-serif">Created by Husein Aziz</text><text x="0" y="110" fill="#000000" font-size="5px" font-weight="bold" font-family="'Helvetica Neue', Helvetica, Arial-Unicode, Arial, Sans-serif">from the Noun Project</text></svg>