<svg xmlns="http://www.w3.org/2000/svg" xmlns:xlink="http://www.w3.org/1999/xlink" version="1.1" x="0px" y="0px" viewBox="0 0 91 113.75" enable-background="new 0 0 91 91" xml:space="preserve"><g><path fill="#000000" d="M26.596,45.396v26.738h3.4V45.396c4.085-0.018,7.402-3.342,7.402-7.43v-16.85h-3.4v16.85   c0,2.223-1.809,4.031-4.033,4.031h-3.339c-2.223,0-4.03-1.809-4.03-4.031v-16.85h-3.4v16.85   C19.195,42.055,22.512,45.381,26.596,45.396z"/><path fill="#000000" d="M73.072,39.664V21.117h-29.4v18.547c0,7.529,5.693,13.748,13,14.594v14.477h-8.314v3.4H69.57v-3.4h-9.498   V54.258C67.379,53.412,73.072,47.193,73.072,39.664z M47.072,39.664V24.518h22.6v15.146c0,6.23-5.068,11.301-11.301,11.301   C52.141,50.965,47.072,45.895,47.072,39.664z"/><rect x="26.596" y="21.117" fill="#000000" width="3.4" height="16.057"/></g><text x="0" y="106" fill="#000000" font-size="5px" font-weight="bold" font-family="'Helvetica Neue', Helvetica, Arial-Unicode, Arial, Sans-serif">Created by BomSymbols</text><text x="0" y="111" fill="#000000" font-size="5px" font-weight="bold" font-family="'Helvetica Neue', Helvetica, Arial-Unicode, Arial, Sans-serif">from the Noun Project</text></svg>