<svg xmlns="http://www.w3.org/2000/svg" data-name="Layer 1" viewBox="0 0 32 40" x="0px" y="0px"><title>ticket</title><path d="M30.24,12,27.73,9.52a1,1,0,0,0-1.42,0A2.55,2.55,0,0,1,22.7,5.91a1,1,0,0,0,0-1.41L20.18,2a1,1,0,0,0-1.41,0L2.43,18.32a1,1,0,0,0,0,1.42l2.51,2.51a1,1,0,0,0,1.42,0A2.56,2.56,0,0,1,10,25.87a1,1,0,0,0,0,1.41l2.51,2.52a1,1,0,0,0,1.42,0L30.24,13.45A1,1,0,0,0,30.24,12Zm-5.66,4.24-.78-.78-1.42,1.41.79.79-10,10L12,26.49a4.55,4.55,0,0,0-6.28-6.27L4.55,19l10-10,.78.79,1.42-1.42-.79-.78L19.48,4.1l1.18,1.19a4.54,4.54,0,0,0,6.27,6.27l1.19,1.19ZM22,13.78a.5.5,0,0,1,0,.7l-.71.72a.5.5,0,0,1-.7,0l-.72-.72a.5.5,0,0,1,0-.7l.72-.71a.5.5,0,0,1,.7,0ZM19.15,11a.51.51,0,0,1,0,.71l-.71.71a.51.51,0,0,1-.71,0l-.7-.71A.5.5,0,0,1,17,11l.7-.7a.5.5,0,0,1,.71,0Z"/><text x="0" y="47" fill="#000000" font-size="5px" font-weight="bold" font-family="'Helvetica Neue', Helvetica, Arial-Unicode, Arial, Sans-serif">Created by Rahmat Hamid</text><text x="0" y="52" fill="#000000" font-size="5px" font-weight="bold" font-family="'Helvetica Neue', Helvetica, Arial-Unicode, Arial, Sans-serif">from the Noun Project</text></svg>